<svg xmlns="http://www.w3.org/2000/svg" width="292" height="280" style="background:#f5f5f5"><text x="146" y="16" text-anchor="middle" font-size="11" fill="#333" font-family="sans-serif" font-weight="bold">Small Shed Optimal Layout · 11×9 · 67 machines · 6 U-shapes</text><text x="22" y="52" text-anchor="end" font-size="9" fill="#555" font-family="monospace">0</text><text x="22" y="68" text-anchor="end" font-size="9" fill="#555" font-family="monospace">1</text><text x="22" y="84" text-anchor="end" font-size="9" fill="#555" font-family="monospace">2</text><text x="22" y="100" text-anchor="end" font-size="9" fill="#555" font-family="monospace">3</text><text x="22" y="116" text-anchor="end" font-size="9" fill="#555" font-family="monospace">4</text><text x="22" y="132" text-anchor="end" font-size="9" fill="#555" font-family="monospace">5</text><text x="22" y="148" text-anchor="end" font-size="9" fill="#555" font-family="monospace">6</text><text x="22" y="164" text-anchor="end" font-size="9" fill="#555" font-family="monospace">7</text><text x="22" y="180" text-anchor="end" font-size="9" fill="#555" font-family="monospace">8</text><text x="47.5" y="36" text-anchor="middle" font-size="8" fill="#555" font-family="monospace">0</text><text x="63.5" y="36" text-anchor="middle" font-size="8" fill="#555" font-family="monospace">1</text><text x="79.5" y="36" text-anchor="middle" font-size="8" fill="#555" font-family="monospace">2</text><text x="95.5" y="36" text-anchor="middle" font-size="8" fill="#555" font-family="monospace">3</text><text x="111.5" y="36" text-anchor="middle" font-size="8" fill="#555" font-family="monospace">4</text><text x="127.5" y="36" text-anchor="middle" font-size="8" fill="#555" font-family="monospace">5</text><text x="143.5" y="36" text-anchor="middle" font-size="8" fill="#555" font-family="monospace">6</text><text x="159.5" y="36" text-anchor="middle" font-size="8" fill="#555" font-family="monospace">7</text><text x="175.5" y="36" text-anchor="middle" font-size="8" fill="#555" font-family="monospace">8</text><text x="191.5" y="36" text-anchor="middle" font-size="8" fill="#555" font-family="monospace">9</text><text x="207.5" y="36" text-anchor="middle" font-size="8" fill="#555" font-family="monospace">10</text><rect x="40" y="40" width="15" height="15" fill="#43a047"/><rect x="56" y="40" width="15" height="15" fill="#43a047"/><rect x="72" y="40" width="15" height="15" fill="#43a047"/><rect x="88" y="40" width="15" height="15" fill="#43a047"/><rect x="104" y="40" width="15" height="15" fill="#43a047"/><rect x="120" y="40" width="15" height="15" fill="#f9a825"/><text x="127.5" y="52" text-anchor="middle" font-size="9" fill="#333" font-family="monospace" font-weight="bold">★</text><rect x="136" y="40" width="15" height="15" fill="#43a047"/><rect x="152" y="40" width="15" height="15" fill="#43a047"/><rect x="168" y="40" width="15" height="15" fill="#43a047"/><rect x="184" y="40" width="15" height="15" fill="#43a047"/><rect x="200" y="40" width="15" height="15" fill="#43a047"/><rect x="40" y="56" width="15" height="15" fill="#43a047"/><rect x="56" y="56" width="15" height="15" fill="#e53935"/><rect x="72" y="56" width="15" height="15" fill="#e53935"/><rect x="88" y="56" width="15" height="15" fill="#e53935"/><rect x="104" y="56" width="15" height="15" fill="#e53935"/><rect x="120" y="56" width="15" height="15" fill="#e53935"/><rect x="136" y="56" width="15" height="15" fill="#e53935"/><rect x="152" y="56" width="15" height="15" fill="#e53935"/><rect x="168" y="56" width="15" height="15" fill="#e53935"/><rect x="184" y="56" width="15" height="15" fill="#e53935"/><rect x="200" y="56" width="15" height="15" fill="#43a047"/><rect x="40" y="72" width="15" height="15" fill="#43a047"/><rect x="56" y="72" width="15" height="15" fill="#43a047"/><rect x="72" y="72" width="15" height="15" fill="#43a047"/><rect x="88" y="72" width="15" height="15" fill="#43a047"/><rect x="104" y="72" width="15" height="15" fill="#43a047"/><rect x="120" y="72" width="15" height="15" fill="#e53935"/><rect x="136" y="72" width="15" height="15" fill="#43a047"/><rect x="152" y="72" width="15" height="15" fill="#43a047"/><rect x="168" y="72" width="15" height="15" fill="#43a047"/><rect x="184" y="72" width="15" height="15" fill="#43a047"/><rect x="200" y="72" width="15" height="15" fill="#43a047"/><rect x="40" y="88" width="15" height="15" fill="#43a047"/><rect x="56" y="88" width="15" height="15" fill="#43a047"/><rect x="72" y="88" width="15" height="15" fill="#43a047"/><rect x="88" y="88" width="15" height="15" fill="#43a047"/><rect x="104" y="88" width="15" height="15" fill="#43a047"/><rect x="120" y="88" width="15" height="15" fill="#e53935"/><rect x="136" y="88" width="15" height="15" fill="#43a047"/><rect x="152" y="88" width="15" height="15" fill="#43a047"/><rect x="168" y="88" width="15" height="15" fill="#43a047"/><rect x="184" y="88" width="15" height="15" fill="#43a047"/><rect x="200" y="88" width="15" height="15" fill="#43a047"/><rect x="40" y="104" width="15" height="15" fill="#43a047"/><rect x="56" y="104" width="15" height="15" fill="#e53935"/><rect x="72" y="104" width="15" height="15" fill="#e53935"/><rect x="88" y="104" width="15" height="15" fill="#e53935"/><rect x="104" y="104" width="15" height="15" fill="#e53935"/><rect x="120" y="104" width="15" height="15" fill="#e53935"/><rect x="136" y="104" width="15" height="15" fill="#e53935"/><rect x="152" y="104" width="15" height="15" fill="#e53935"/><rect x="168" y="104" width="15" height="15" fill="#e53935"/><rect x="184" y="104" width="15" height="15" fill="#e53935"/><rect x="200" y="104" width="15" height="15" fill="#43a047"/><rect x="40" y="120" width="15" height="15" fill="#43a047"/><rect x="56" y="120" width="15" height="15" fill="#43a047"/><rect x="72" y="120" width="15" height="15" fill="#43a047"/><rect x="88" y="120" width="15" height="15" fill="#43a047"/><rect x="104" y="120" width="15" height="15" fill="#43a047"/><rect x="120" y="120" width="15" height="15" fill="#e53935"/><rect x="136" y="120" width="15" height="15" fill="#43a047"/><rect x="152" y="120" width="15" height="15" fill="#43a047"/><rect x="168" y="120" width="15" height="15" fill="#43a047"/><rect x="184" y="120" width="15" height="15" fill="#43a047"/><rect x="200" y="120" width="15" height="15" fill="#43a047"/><rect x="40" y="136" width="15" height="15" fill="#43a047"/><rect x="56" y="136" width="15" height="15" fill="#43a047"/><rect x="72" y="136" width="15" height="15" fill="#43a047"/><rect x="88" y="136" width="15" height="15" fill="#43a047"/><rect x="104" y="136" width="15" height="15" fill="#43a047"/><rect x="120" y="136" width="15" height="15" fill="#e53935"/><rect x="136" y="136" width="15" height="15" fill="#43a047"/><rect x="152" y="136" width="15" height="15" fill="#43a047"/><rect x="168" y="136" width="15" height="15" fill="#43a047"/><rect x="184" y="136" width="15" height="15" fill="#43a047"/><rect x="200" y="136" width="15" height="15" fill="#43a047"/><rect x="40" y="152" width="15" height="15" fill="#43a047"/><rect x="56" y="152" width="15" height="15" fill="#e53935"/><rect x="72" y="152" width="15" height="15" fill="#e53935"/><rect x="88" y="152" width="15" height="15" fill="#e53935"/><rect x="104" y="152" width="15" height="15" fill="#e53935"/><rect x="120" y="152" width="15" height="15" fill="#e53935"/><rect x="136" y="152" width="15" height="15" fill="#e53935"/><rect x="152" y="152" width="15" height="15" fill="#e53935"/><rect x="168" y="152" width="15" height="15" fill="#e53935"/><rect x="184" y="152" width="15" height="15" fill="#e53935"/><rect x="200" y="152" width="15" height="15" fill="#43a047"/><rect x="40" y="168" width="15" height="15" fill="#43a047"/><rect x="56" y="168" width="15" height="15" fill="#43a047"/><rect x="72" y="168" width="15" height="15" fill="#43a047"/><rect x="88" y="168" width="15" height="15" fill="#43a047"/><rect x="104" y="168" width="15" height="15" fill="#43a047"/><rect x="120" y="168" width="15" height="15" fill="#e53935"/><rect x="136" y="168" width="15" height="15" fill="#43a047"/><rect x="152" y="168" width="15" height="15" fill="#43a047"/><rect x="168" y="168" width="15" height="15" fill="#43a047"/><rect x="184" y="168" width="15" height="15" fill="#43a047"/><rect x="200" y="168" width="15" height="15" fill="#43a047"/><text x="222" y="68" font-size="9" fill="#333" font-family="sans-serif" font-weight="bold">U1</text><text x="222" y="116" font-size="9" fill="#333" font-family="sans-serif" font-weight="bold">U2</text><text x="222" y="164" font-size="9" fill="#333" font-family="sans-serif" font-weight="bold">U3</text><text x="127.5" y="198" text-anchor="middle" font-size="8" fill="#555" font-family="sans-serif">col 5 (corridor)</text><text x="127.5" y="210" text-anchor="middle" font-size="9" fill="#1565c0" font-family="sans-serif">▲ door entrance below</text><rect x="26" y="224" width="12" height="12" fill="#43a047"/><text x="42" y="234" font-size="9" fill="#333" font-family="sans-serif">Machine (67 total)</text><rect x="166" y="224" width="12" height="12" fill="#e53935"/><text x="182" y="234" font-size="9" fill="#333" font-family="sans-serif">Empty / corridor</text><rect x="306" y="224" width="12" height="12" fill="#f9a825"/><text x="322" y="234" font-size="9" fill="#333" font-family="sans-serif">Back machine ★</text></svg>